<svg width="96" height="67" viewBox="0 0 96 67" fill="none" xmlns="http://www.w3.org/2000/svg">
<path d="M21 25L25.7148 39.5106H40.9722L28.6287 48.4787L33.3435 62.9894L21 54.0213L8.65651 62.9894L13.3713 48.4787L1.02781 39.5106H16.2852L21 25Z" fill="#FFB55B"/>
<path d="M47.5 0L53.4496 18.3111H72.703L57.1267 29.6279L63.0763 47.9389L47.5 36.6221L31.9237 47.9389L37.8733 29.6279L22.297 18.3111H41.5504L47.5 0Z" fill="#FEC613"/>
<path d="M75 25L79.7148 39.5106H94.9722L82.6287 48.4787L87.3435 62.9894L75 54.0213L62.6565 62.9894L67.3713 48.4787L55.0278 39.5106H70.2852L75 25Z" fill="#FFB55B"/>
</svg>
